<svg height="27" viewBox="0 0 79 100" fill="#21212" xmlns="http://www.w3.org/2000/svg">
    <path
        d="M25.6962 85.1746C21.1941 81.0449 19.8798 72.3679 21.7555 66.0819C25.0079 70.0453 29.5143 71.3006 34.1821 72.0093C41.3881 73.1029 48.4652 72.6939 55.1592 69.3889C55.9248 69.0106 56.6325 68.5076 57.4692 67.9979C58.0975 69.8263 58.2608 71.6726 58.0415 73.5513C57.5082 78.1273 55.2388 81.6619 51.6292 84.3413C50.1858 85.413 48.6585 86.371 47.1678 87.3816C42.5885 90.4876 41.3495 94.1293 43.0701 99.427C43.1111 99.556 43.1478 99.685 43.2401 100C40.9018 98.95 39.1941 97.4213 37.8928 95.411C36.5181 93.2893 35.8641 90.9423 35.8298 88.403C35.8125 87.1673 35.8125 85.9203 35.6468 84.7023C35.2425 81.732 33.8531 80.4019 31.2351 80.3253C28.5485 80.2466 26.4232 81.9133 25.8597 84.538C25.8167 84.7393 25.7543 84.9383 25.6919 85.1723L25.6962 85.1746Z"
        fill="#FF5D01" />
    <path
        d="M0 65.0345C0 65.0345 13.3316 58.5175 26.7005 58.5175L36.7801 27.2154C37.1574 25.7016 38.2594 24.6729 39.5031 24.6729C40.7471 24.6729 41.8491 25.7016 42.2264 27.2154L52.3061 58.5175C68.1395 58.5175 79.0065 65.0345 79.0065 65.0345C79.0065 65.0345 56.3618 3.13303 56.3175 3.00883C55.6675 1.17869 54.5705 0 53.0911 0H25.9178C24.4385 0 23.3856 1.17869 22.6914 3.00883C22.6425 3.13069 0 65.0345 0 65.0345Z"
        fill="white" />
</svg>