<svg width="17" height="27" viewBox="0 0 17 27" fill="#21212" xmlns="http://www.w3.org/2000/svg">
    <g id="Group 84">
        <path id="Vector"
            d="M4.33335 26.5556C6.63336 26.5556 8.50002 24.6059 8.50002 22.2037V17.8519H4.33335C2.03335 17.8519 0.166687 19.8015 0.166687 22.2037C0.166687 24.6059 2.03335 26.5556 4.33335 26.5556Z"
            fill="#0ACF83" />
        <path id="Vector_2"
            d="M0.166687 13.5C0.166687 11.0978 2.03335 9.14813 4.33335 9.14813H8.50002V17.8518H4.33335C2.03335 17.8518 0.166687 15.9022 0.166687 13.5Z"
            fill="#A259FF" />
        <path id="Vector_3"
            d="M0.166687 4.79631C0.166687 2.39409 2.03335 0.444458 4.33335 0.444458H8.50002V9.14816H4.33335C2.03335 9.14816 0.166687 7.19853 0.166687 4.79631Z"
            fill="#F24E1E" />
        <path id="Vector_4"
            d="M8.5 0.444458H12.6667C14.9667 0.444458 16.8333 2.39409 16.8333 4.79631C16.8333 7.19853 14.9667 9.14816 12.6667 9.14816H8.5V0.444458Z"
            fill="#FF7262" />
        <path id="Vector_5"
            d="M16.8333 13.5C16.8333 15.9022 14.9667 17.8518 12.6667 17.8518C10.3667 17.8518 8.5 15.9022 8.5 13.5C8.5 11.0978 10.3667 9.14813 12.6667 9.14813C14.9667 9.14813 16.8333 11.0978 16.8333 13.5Z"
            fill="#1ABCFE" />
    </g>
</svg>