<svg width="32" height="24" viewBox="0 0 32 24" fill="none" xmlns="http://www.w3.org/2000/svg">
<path d="M28 0.910034H4C2.93913 0.910034 1.92172 1.33146 1.17157 2.0816C0.421424 2.83175 0 3.84917 0 4.91003V19.91C0 20.9709 0.421424 21.9883 1.17157 22.7385C1.92172 23.4886 2.93913 23.91 4 23.91H28C29.0609 23.91 30.0783 23.4886 30.8284 22.7385C31.5786 21.9883 32 20.9709 32 19.91V4.91003C32 3.84917 31.5786 2.83175 30.8284 2.0816C30.0783 1.33146 29.0609 0.910034 28 0.910034ZM30 19.91C30 20.4405 29.7893 20.9492 29.4142 21.3242C29.0391 21.6993 28.5304 21.91 28 21.91H4C3.46957 21.91 2.96086 21.6993 2.58578 21.3242C2.21071 20.9492 2 20.4405 2 19.91V4.91003C2 4.3796 2.21071 3.87089 2.58578 3.49582C2.96086 3.12075 3.46957 2.91003 4 2.91003H28C28.5304 2.91003 29.0391 3.12075 29.4142 3.49582C29.7893 3.87089 30 4.3796 30 4.91003V19.91Z" fill="white"/>
<path d="M26.37 6.14003L16 14.62L5.62999 6.14003C5.42339 6.00332 5.17341 5.94816 4.92847 5.98524C4.68353 6.02233 4.46107 6.14901 4.3042 6.34074C4.14733 6.53248 4.06721 6.77562 4.07936 7.02305C4.09152 7.27049 4.19509 7.50459 4.36999 7.68002L15.37 16.68C15.5482 16.8245 15.7706 16.9034 16 16.9034C16.2294 16.9034 16.4518 16.8245 16.63 16.68L27.63 7.68002C27.7466 7.60285 27.8458 7.50209 27.921 7.38423C27.9963 7.26637 28.046 7.13402 28.0669 6.99576C28.0878 6.85749 28.0795 6.71638 28.0425 6.58153C28.0055 6.44667 27.9407 6.32107 27.8521 6.21284C27.7636 6.10461 27.6533 6.01615 27.5284 5.95318C27.4036 5.89022 27.2669 5.85413 27.1272 5.84727C26.9875 5.84041 26.848 5.86293 26.7176 5.91336C26.5871 5.96378 26.4687 6.041 26.37 6.14003Z" fill="white"/>
</svg>
